<?xml version="1.0" encoding="utf-8"?>
<!-- Generator: Adobe Illustrator 24.3.0, SVG Export Plug-In . SVG Version: 6.00 Build 0)  -->
<svg version="1.1" id="Layer_1" xmlns="http://www.w3.org/2000/svg" xmlns:xlink="http://www.w3.org/1999/xlink" x="0px" y="0px"
	 viewBox="0 0 636.1 140.4" style="enable-background:new 0 0 636.1 140.4;" xml:space="preserve">
<style type="text/css">
	.st0{fill:url(#SVGID_1_);}
	.st1{fill:url(#SVGID_2_);}
	.st2{fill:url(#SVGID_3_);}
	.st3{fill:url(#SVGID_4_);}
	.st4{fill:url(#SVGID_5_);}
	.st5{fill:url(#SVGID_6_);}
	.st6{fill:url(#SVGID_7_);}
	.st7{fill:url(#SVGID_8_);}
	.st8{fill:url(#SVGID_9_);}
	.st9{fill:url(#SVGID_10_);}
	.st10{fill:url(#SVGID_11_);}
	.st11{fill:url(#SVGID_12_);}
	.st12{fill:url(#SVGID_13_);}
	.st13{fill:url(#SVGID_14_);}
	.st14{fill:url(#SVGID_15_);}
	.st15{fill:url(#SVGID_16_);}
	.st16{fill:url(#SVGID_17_);}
	.st17{fill:url(#SVGID_18_);}
	.st18{fill:url(#SVGID_19_);}
	.st19{fill:url(#SVGID_20_);}
	.st20{fill:url(#SVGID_21_);}
	.st21{fill:none;}
</style>
<linearGradient id="SVGID_1_" gradientUnits="userSpaceOnUse" x1="-122.047" y1="-176.2" x2="549.1567" y2="-176.2" gradientTransform="matrix(1 0 0 1 0 20)">
	<stop  offset="1.502404e-03" style="stop-color:#DA8CFF"/>
	<stop  offset="1" style="stop-color:#9A55FF"/>
</linearGradient>
<path class="st0" d="M95.5-145.3v38.1H71.6v-98h38.7c7.6,0,14.2,1.4,19.6,4.2c5.4,2.8,9.5,6.5,12.3,11c2.7,4.6,4.1,9.5,4.1,14.8
	c0,4.5-1.1,9-3.3,13.5s-6,8.4-11.4,11.6s-12.5,4.8-21.4,4.8H95.5z M118.9-166.7c2.1-2.1,3.1-5,3.1-8.5c0-3.4-1.1-6.3-3.2-8.5
	s-5-3.3-8.5-3.3H95.5v23.5h14.8C114-163.5,116.8-164.5,118.9-166.7z"/>
<linearGradient id="SVGID_2_" gradientUnits="userSpaceOnUse" x1="-122.047" y1="-165.75" x2="549.1567" y2="-165.75" gradientTransform="matrix(1 0 0 1 0 20)">
	<stop  offset="1.502404e-03" style="stop-color:#DA8CFF"/>
	<stop  offset="1" style="stop-color:#9A55FF"/>
</linearGradient>
<path class="st1" d="M233.5-185.1v77.9h-23.9v-11.5c-2.3,3.8-5.5,6.8-9.6,9c-4,2.2-8.7,3.3-14,3.3c-5.9,0-11-1.3-15.6-4
	c-4.5-2.7-8-6.5-10.6-11.5s-3.8-10.9-3.8-17.7v-45.5h23.7v42.3c0,5,1.3,8.9,4,11.7c2.7,2.7,6.3,4.1,11,4.1s8.3-1.4,11-4.1
	s4-6.6,4-11.7v-42.3H233.5z"/>
<linearGradient id="SVGID_3_" gradientUnits="userSpaceOnUse" x1="-122.047" y1="-166.55" x2="549.1567" y2="-166.55" gradientTransform="matrix(1 0 0 1 0 20)">
	<stop  offset="1.502404e-03" style="stop-color:#DA8CFF"/>
	<stop  offset="1" style="stop-color:#9A55FF"/>
</linearGradient>
<path class="st2" d="M287.9-181.8c3.8-2.7,8-4.1,12.7-4.1v24.3h-5.9c-5.5,0-9.6,1.3-12.4,3.9c-2.7,2.6-4.1,7.2-4.1,13.7v36.8h-23.9
	v-77.9h23.9v14.5C280.9-175.3,284.1-179.1,287.9-181.8z"/>
<linearGradient id="SVGID_4_" gradientUnits="userSpaceOnUse" x1="-122.047" y1="-147.9021" x2="549.1567" y2="-147.9021" gradientTransform="matrix(1 0 0 1 0 20)">
	<stop  offset="1.502404e-03" style="stop-color:#DA8CFF"/>
	<stop  offset="1" style="stop-color:#9A55FF"/>
</linearGradient>
<path class="st3" d="M378.1-180.8c5.4,3.4,9.7,8.1,12.9,14.2c3.2,6,4.7,12.9,4.7,20.7c0,7.7-1.6,14.6-4.7,20.7
	c-3.2,6-7.5,10.7-12.9,14.1s-11.4,5-17.8,5c-9.7,0-17.3-4.1-22.9-12.3V-70h-23.8v-115h23.9v10.2c5.3-7.3,12.9-11,22.9-11
	C366.8-185.9,372.7-184.2,378.1-180.8z M346.3-163.1c-2.6,1.4-4.7,3.6-6.4,6.4c-1.6,2.8-2.4,6.4-2.4,10.5c0,4.2,0.8,7.7,2.4,10.6
	c1.6,2.9,3.8,5,6.4,6.5c2.7,1.4,5.4,2.2,8.2,2.2c2.9,0,5.6-0.7,8.2-2.2c2.6-1.4,4.7-3.6,6.3-6.4c1.6-2.8,2.4-6.4,2.4-10.5
	c0-4.2-0.8-7.7-2.4-10.6c-1.6-2.9-3.8-5-6.4-6.5c-2.7-1.4-5.4-2.2-8.2-2.2S348.9-164.6,346.3-163.1z"/>
<linearGradient id="SVGID_5_" gradientUnits="userSpaceOnUse" x1="-122.047" y1="-178.85" x2="549.1567" y2="-178.85" gradientTransform="matrix(1 0 0 1 0 20)">
	<stop  offset="1.502404e-03" style="stop-color:#DA8CFF"/>
	<stop  offset="1" style="stop-color:#9A55FF"/>
</linearGradient>
<path class="st4" d="M434.9-210.5v103.3H411v-103.3H434.9z"/>
<linearGradient id="SVGID_6_" gradientUnits="userSpaceOnUse" x1="-122.047" y1="-166" x2="549.1567" y2="-166" gradientTransform="matrix(1 0 0 1 0 20)">
	<stop  offset="1.502404e-03" style="stop-color:#DA8CFF"/>
	<stop  offset="1" style="stop-color:#9A55FF"/>
</linearGradient>
<path class="st5" d="M528.1-138.3h-53.6c0.5,3.4,2,6.3,4.6,8.4c2.6,2.2,5.9,3.3,9.8,3.3c3,0,5.2-0.4,6.7-1.3
	c1.5-0.9,3.1-2.3,4.7-4.4h25.8c-2.2,7.8-6.7,14.1-13.4,18.9s-14.7,7.2-23.9,7.2c-7.4,0-14.1-1.6-20-4.9s-10.5-7.9-13.8-14
	c-3.3-6.1-5-13.1-5-21.1s1.7-15,5-21s7.9-10.6,13.7-13.8c5.9-3.2,12.5-4.8,20-4.8s14.3,1.6,20.4,4.7c6,3.1,10.8,7.7,14.3,13.7
	s5.2,13.3,5.2,21.6C528.7-143.2,528.5-140.7,528.1-138.3z M503.8-153.3c-0.4-3.6-2-6.6-4.7-8.9c-2.8-2.3-6.2-3.4-10.3-3.4
	c-3.5,0-6.6,1.1-9.2,3.4c-2.6,2.3-4.2,5.2-4.9,8.9C474.7-153.3,503.8-153.3,503.8-153.3z"/>
<g>
	<g>
		
			<linearGradient id="SVGID_7_" gradientUnits="userSpaceOnUse" x1="-14.647" y1="13.725" x2="656.5567" y2="13.725" gradientTransform="matrix(1 0 0 1 0 20)">
			<stop  offset="1.502404e-03" style="stop-color:#DA8CFF"/>
			<stop  offset="1" style="stop-color:#9A55FF"/>
		</linearGradient>
		<path class="st6" d="M100.2,30L53.1,6.5c-1.2-0.6-2.5-0.6-3.7,0L2.3,30C0.9,30.7,0,32.2,0,33.7c0,1.6,0.9,3,2.3,3.7L49.4,61
			c0.6,0.3,1.2,0.4,1.9,0.4c0.6,0,1.3-0.1,1.9-0.4l47.1-23.5c1.4-0.7,2.3-2.1,2.3-3.7C102.5,32.2,101.6,30.7,100.2,30z M51.2,52.7
			l-37.8-19l37.8-18.9L89,33.7L51.2,52.7z"/>
	</g>
</g>
<g>
	<g>
		
			<linearGradient id="SVGID_8_" gradientUnits="userSpaceOnUse" x1="-14.647" y1="72.586" x2="656.5567" y2="72.586" gradientTransform="matrix(1 0 0 1 0 20)">
			<stop  offset="1.502404e-03" style="stop-color:#DA8CFF"/>
			<stop  offset="1" style="stop-color:#9A55FF"/>
		</linearGradient>
		<path class="st7" d="M102,79c-1-2-3.5-2.9-5.6-1.9L51.2,99.8L6,77.1c-2-1-4.5-0.2-5.6,1.9c-1,2-0.2,4.5,1.9,5.6l47.1,23.5
			c0.6,0.3,1.2,0.4,1.9,0.4c0.6,0,1.3-0.1,1.9-0.4l47.1-23.5C102.2,83.5,103,81,102,79z"/>
	</g>
</g>
<g>
	<g>
		
			<linearGradient id="SVGID_9_" gradientUnits="userSpaceOnUse" x1="-14.647" y1="49.0447" x2="656.5567" y2="49.0447" gradientTransform="matrix(1 0 0 1 0 20)">
			<stop  offset="1.502404e-03" style="stop-color:#DA8CFF"/>
			<stop  offset="1" style="stop-color:#9A55FF"/>
		</linearGradient>
		<path class="st8" d="M102,55.4c-1-2-3.5-2.9-5.6-1.9L51.2,76.2L6,53.6c-2-1-4.5-0.2-5.6,1.9c-1,2-0.2,4.5,1.9,5.6l47.1,23.5
			c0.6,0.3,1.2,0.4,1.9,0.4c0.6,0,1.3-0.1,1.9-0.4l47-23.6C102.2,60,103,57.5,102,55.4z"/>
	</g>
</g>
<g>
	
		<linearGradient id="SVGID_10_" gradientUnits="userSpaceOnUse" x1="196.2378" y1="42.1366" x2="140.6859" y2="138.3554" gradientTransform="matrix(1 0 0 -1 0 140)">
		<stop  offset="1.502404e-03" style="stop-color:#DA8CFF"/>
		<stop  offset="1" style="stop-color:#9A55FF"/>
	</linearGradient>
	<path class="st9" d="M208.6,14.4c3,4.1,4.4,8.9,4.4,14.4c0,5.8-1.5,10.3-4.6,13.9c-1.7,2-4.2,3.8-7.5,5.4c5,1.7,8.7,4.6,11.3,8.4
		c2.6,3.8,3.8,8.4,3.8,13.8c0,5.5-1.5,10.6-4.3,15c-1.8,3-4.2,5.4-6.9,7.4c-3.1,2.3-6.8,3.9-11.1,4.7s-8.9,1.2-13.8,1.2h-44V4.4
		h47.2C195,4.6,203.5,7.9,208.6,14.4z M155.4,20.7v20.8h23.7c4.3,0,7.7-0.7,10.3-2.3c2.7-1.6,3.9-4.3,3.9-8.2c0-4.4-1.7-7.3-5.3-8.7
		c-3.1-1-6.9-1.5-11.6-1.5C176.6,20.7,155.4,20.7,155.4,20.7z M155.4,57.1v25.1h23.7c4.2,0,7.5-0.6,9.8-1.7c4.3-2.1,6.4-6,6.4-11.8
		c0-4.9-2.1-8.2-6.3-10.1c-2.3-1-5.5-1.6-9.7-1.6h-24V57.1z"/>
	
		<linearGradient id="SVGID_11_" gradientUnits="userSpaceOnUse" x1="264.8145" y1="49.0037" x2="219.2298" y2="127.9587" gradientTransform="matrix(1 0 0 -1 0 140)">
		<stop  offset="1.502404e-03" style="stop-color:#DA8CFF"/>
		<stop  offset="1" style="stop-color:#9A55FF"/>
	</linearGradient>
	<path class="st10" d="M251.5,98.7h-18.9V4.4h18.9V98.7z"/>
	
		<linearGradient id="SVGID_12_" gradientUnits="userSpaceOnUse" x1="321.5233" y1="42.8634" x2="283.235" y2="109.1806" gradientTransform="matrix(1 0 0 -1 0 140)">
		<stop  offset="1.502404e-03" style="stop-color:#DA8CFF"/>
		<stop  offset="1" style="stop-color:#9A55FF"/>
	</linearGradient>
	<path class="st11" d="M330.2,90.2c-6.1,7.3-15.4,10.9-27.8,10.9c-12.4,0-21.6-3.7-27.8-10.9c-6.1-7.3-9.1-16-9.1-26.2
		c0-10.1,3.1-18.8,9.1-26.2c6.1-7.4,15.4-11.1,27.8-11.1c12.4,0,21.6,3.7,27.8,11.1s9.1,16.1,9.1,26.2
		C339.3,74.1,336.4,82.8,330.2,90.2z M315.1,80.1c3-3.8,4.4-9.2,4.4-16.1c0-7-1.5-12.3-4.4-16.1c-3-3.8-7.3-5.7-12.8-5.7
		c-5.5,0-9.8,1.8-12.8,5.7c-3,3.8-4.4,9.1-4.4,16.1c0,7,1.5,12.4,4.4,16.1c3,3.8,7.3,5.7,12.8,5.7C307.8,85.8,312.1,83.8,315.1,80.1
		z"/>
	
		<linearGradient id="SVGID_13_" gradientUnits="userSpaceOnUse" x1="412.4288" y1="21.4687" x2="362.4425" y2="108.0475" gradientTransform="matrix(1 0 0 -1 0 140)">
		<stop  offset="1.502404e-03" style="stop-color:#DA8CFF"/>
		<stop  offset="1" style="stop-color:#9A55FF"/>
	</linearGradient>
	<path class="st12" d="M388.6,28.8c4.6,1.8,8.4,5.2,11.1,10.1V28.8h18.4V95c0,9-1.6,15.7-4.7,20.3c-5.4,7.9-15.7,11.8-31,11.8
		c-9.2,0-16.7-1.7-22.6-5.3c-5.8-3.4-9.1-8.7-9.7-15.6h20.5c0.5,2.1,1.4,3.7,2.6,4.6c2.1,1.7,5.4,2.5,10.3,2.5
		c6.8,0,11.3-2.2,13.7-6.6c1.5-2.8,2.2-7.5,2.2-14.1v-4.3c-1.8,3-3.8,5.2-5.8,6.8c-3.8,2.8-8.6,4.2-14.6,4.2
		c-9.3,0-16.7-3.2-22.3-9.5c-5.5-6.3-8.4-14.8-8.4-25.6c0-10.3,2.7-19.1,8-26.1s12.9-10.6,22.8-10.6
		C382.9,27.2,385.9,27.8,388.6,28.8z M395,78.9c3.1-3.2,4.6-8.4,4.6-15.4c0-6.6-1.5-11.7-4.3-15.1c-2.8-3.4-6.8-5.2-11.6-5.2
		c-6.6,0-11.2,3-13.7,9c-1.4,3.2-2,7.1-2,11.8c0,4.1,0.7,7.6,2.1,10.8c2.6,5.9,7.1,8.9,13.8,8.9C388.4,83.7,392.1,82.1,395,78.9z"/>
	
		<linearGradient id="SVGID_14_" gradientUnits="userSpaceOnUse" x1="495.3905" y1="21.5731" x2="445.4042" y2="108.1519" gradientTransform="matrix(1 0 0 -1 0 140)">
		<stop  offset="1.502404e-03" style="stop-color:#DA8CFF"/>
		<stop  offset="1" style="stop-color:#9A55FF"/>
	</linearGradient>
	<path class="st13" d="M471.7,28.8c4.6,1.8,8.4,5.2,11.1,10.1V28.8h18.4V95c0,9-1.6,15.7-4.7,20.3c-5.4,7.9-15.7,11.8-31,11.8
		c-9.2,0-16.7-1.7-22.6-5.3c-5.8-3.4-9.1-8.7-9.7-15.6h20.5c0.5,2.1,1.4,3.7,2.6,4.6c2.1,1.7,5.4,2.5,10.3,2.5
		c6.8,0,11.3-2.2,13.7-6.6c1.5-2.8,2.2-7.5,2.2-14.1v-4.3c-1.8,3-3.8,5.2-5.8,6.8c-3.8,2.8-8.6,4.2-14.6,4.2
		c-9.3,0-16.7-3.2-22.3-9.5s-8.4-14.8-8.4-25.6c0-10.3,2.7-19.1,8-26.1c5.3-7,12.9-10.6,22.8-10.6C465.8,27.2,468.9,27.8,471.7,28.8
		z M478.1,78.9c3.1-3.2,4.6-8.4,4.6-15.4c0-6.6-1.5-11.7-4.3-15.1c-2.8-3.4-6.8-5.2-11.6-5.2c-6.6,0-11.2,3-13.7,9
		c-1.4,3.2-2,7.1-2,11.8c0,4.1,0.7,7.6,2.1,10.8c2.6,5.9,7.1,8.9,13.8,8.9C471.3,83.7,475,82.1,478.1,78.9z"/>
	
		<linearGradient id="SVGID_15_" gradientUnits="userSpaceOnUse" x1="568.1833" y1="42.7124" x2="530.1959" y2="108.5084" gradientTransform="matrix(1 0 0 -1 0 140)">
		<stop  offset="1.502404e-03" style="stop-color:#DA8CFF"/>
		<stop  offset="1" style="stop-color:#9A55FF"/>
	</linearGradient>
	<path class="st14" d="M566,30.3c5,2.2,9.2,5.7,12.5,10.3c3,4.2,4.9,9,5.8,14.4c0.5,3.2,0.7,7.9,0.6,13.9h-52.6
		c0.2,7,2.8,11.9,7.5,14.8c2.8,1.7,6.4,2.6,10.5,2.6c4.3,0,7.7-1.1,10.5-3.2c1.5-1.1,2.7-2.7,3.9-4.8h19.3c-0.5,4.2-2.8,8.4-7,12.5
		c-6.5,6.8-15.5,10.2-27.2,10.2c-9.6,0-18.1-2.8-25.5-8.6c-7.4-5.8-11.1-15-11.1-27.9c0-12.1,3.3-21.4,10-27.8
		c6.6-6.4,15.3-9.7,25.8-9.7C555.3,27.1,560.9,28.2,566,30.3z M537.7,46c-2.7,2.7-4.3,6.3-5,10.8h32.6c-0.4-4.8-2-8.5-5-11.1
		c-3.1-2.5-6.8-3.8-11.2-3.8C544.1,42.1,540.3,43.5,537.7,46z"/>
	
		<linearGradient id="SVGID_16_" gradientUnits="userSpaceOnUse" x1="630.0403" y1="51.0929" x2="595.1073" y2="111.5987" gradientTransform="matrix(1 0 0 -1 0 140)">
		<stop  offset="1.502404e-03" style="stop-color:#DA8CFF"/>
		<stop  offset="1" style="stop-color:#9A55FF"/>
	</linearGradient>
	<path class="st15" d="M634.5,27.4c0.2,0,0.7,0,1.6,0.1v18.7c-1.2-0.1-2.2-0.2-3.2-0.2s-1.7-0.1-2.2-0.1c-7.6,0-12.7,2.3-15.4,7.1
		c-1.5,2.7-2.2,6.8-2.2,12.4v33.3h-18.9V28.9h18.1v12.2c3-4.7,5.4-7.9,7.6-9.5c3.6-2.8,8.1-4.3,13.8-4.3
		C634,27.2,634.3,27.4,634.5,27.4z"/>
</g>
<g>
	
		<linearGradient id="SVGID_17_" gradientUnits="userSpaceOnUse" x1="510.3404" y1="13.4537" x2="534.5549" y2="13.4537" gradientTransform="matrix(1 0 0 -1 0 140)">
		<stop  offset="1.502330e-03" style="stop-color:#DA34C7"/>
		<stop  offset="1" style="stop-color:#9A55FF"/>
	</linearGradient>
	<path class="st16" d="M520.8,130.9l-10.4-17.7h4.7l7.2,13.3h0.3l7.2-13.3h4.7l-10.4,17.7H520.8z M520.4,139.8v-13.1h4.4v13.1H520.4
		z"/>
	
		<linearGradient id="SVGID_18_" gradientUnits="userSpaceOnUse" x1="536.2366" y1="13.4537" x2="559.7784" y2="13.4537" gradientTransform="matrix(1 0 0 -1 0 140)">
		<stop  offset="1.502330e-03" style="stop-color:#DA34C7"/>
		<stop  offset="1" style="stop-color:#9A55FF"/>
	</linearGradient>
	<path class="st17" d="M536.2,139.8l8.7-26.6h6.1l8.7,26.6h-4.4l-7.1-23.4H548l-7.1,23.4H536.2z M540.3,133.3v-3.5h15.1v3.5H540.3z"
		/>
	
		<linearGradient id="SVGID_19_" gradientUnits="userSpaceOnUse" x1="563.8141" y1="13.4537" x2="583.3203" y2="13.4537" gradientTransform="matrix(1 0 0 -1 0 140)">
		<stop  offset="1.502330e-03" style="stop-color:#DA34C7"/>
		<stop  offset="1" style="stop-color:#9A55FF"/>
	</linearGradient>
	<path class="st18" d="M563.8,116.8v-3.5h19v3.5H563.8z M567,138.5l-3.2-2.4l15.8-22l3.2,2.5L567,138.5z M563.8,139.8v-3.5h19.5v3.5
		H563.8z"/>
	
		<linearGradient id="SVGID_20_" gradientUnits="userSpaceOnUse" x1="586.8517" y1="13.4537" x2="610.3936" y2="13.4537" gradientTransform="matrix(1 0 0 -1 0 140)">
		<stop  offset="1.502330e-03" style="stop-color:#DA34C7"/>
		<stop  offset="1" style="stop-color:#9A55FF"/>
	</linearGradient>
	<path class="st19" d="M586.9,139.8l8.7-26.6h6.1l8.7,26.6H606l-7.1-23.4h-0.3l-7.1,23.4H586.9z M590.9,133.3v-3.5H606v3.5H590.9z"
		/>
	
		<linearGradient id="SVGID_21_" gradientUnits="userSpaceOnUse" x1="614.2611" y1="13.4537" x2="635.4488" y2="13.4537" gradientTransform="matrix(1 0 0 -1 0 140)">
		<stop  offset="1.502330e-03" style="stop-color:#DA34C7"/>
		<stop  offset="1" style="stop-color:#9A55FF"/>
	</linearGradient>
	<path class="st20" d="M614.3,139.8v-26.6h4.4v26.6H614.3z M618.3,129.7v-3.5h6.2c1.7,0,3-0.3,3.9-1.2c1-0.8,1.3-1.8,1.3-3.4
		c0-1.5-0.5-2.7-1.3-3.5c-1-0.8-2.2-1.3-3.9-1.3h-6.1l-0.5-3.5h6.6c3.2,0,5.5,0.7,7.2,2c1.7,1.3,2.5,3.4,2.5,5.9
		c0,2.7-0.8,4.7-2.5,6.2c-1.7,1.5-4,2.2-7.2,2.2h-6.2V129.7z M630.4,139.8l-6.7-12.4h4.7l7.1,12.4H630.4z"/>
</g>
<line class="st21" x1="497" y1="108.5" x2="632" y2="108.5"/>
</svg>
